<svg enable-background="new 0 0 940.505 940.505" viewBox="0 0 940.505 940.505" xmlns="http://www.w3.org/2000/svg"><path d="m97.36 306.965c21.6-7.9 44.8-11.9 63.9-13.9 13.9-42.7 32.4-80.2 55.2-111.8 14.7-20.3 31.2-38.3 49.4-53.8-37.3-20.1-97.8-42.7-163.3-27.6-75.7 17.4-96.6 88.6-102.4 129.5-1.7 11.7 10.4 20.7 21.2 15.6 45-21.1 83-10.9 83-10.9-10.1 14.1-19.3 35.3-26.2 53.3-4.499 12.2 7.2 24 19.2 19.6z"/><path d="m392.861 623.665c0 13.8 9.199 26.2 23.899 35.2 13.9 8 32.8 13.5 53.7 13.5 20 0 39.6-5.5 53.6-13.5 14.7-9 23.801-21.4 23.801-35.2 0-26.8-34.4-48.7-77.401-48.7-42.799 0-77.599 21.9-77.599 48.7z"/><path d="m919.161 245.165c10.7 5 22.8-3.9 21.2-15.6-5.801-40.9-26.7-112-102.4-129.5-65.5-15.1-125.9 7.5-163.3 27.6 18.2 15.5 34.8 33.4 49.399 53.8 22.801 31.5 41.301 69 55.2 111.8 19.101 2 42.3 5.9 63.9 13.9 12.1 4.4 23.8-7.4 19.2-19.4-6.801-18.1-16.101-39.2-26.2-53.3.001-.2 38.001-10.4 83.001 10.7z"/><path d="m821.161 750.365c8.399 0 16.2-7.1 15-16.9-8.5-67.8-31.2-218.1-83.7-408.2-3.3-12-13.2-40.8-14.5-44.2-15.4-39.9-37.1-77.8-66.8-108.8-30.101-31.4-67.9-54.1-109.8-65.5-24.4-6.7-49.101-8.4-74.2-10 0 0-.2 284.5 68.2 397.3 44.899 74 59.199 136.8 39.199 172.399-8.6 15.4-23.6 25.301-39.699 31.7-21.301 8.5-49.5 12.601-84.601 12.601-35.1 0-63.3-4.101-84.6-12.601-14.601-5.8-31.5-17.2-39.7-31.7-20-35.6-5.8-98.399 39.2-172.399 68.5-112.7 68.3-397.2 68.3-397.2-25.2 1.6-49.8 3.3-74.2 10-42 11.5-79.8 34.1-109.8 65.5-29.7 31-51.3 68.9-66.8 108.8-1.3 3.3-11.2 32.2-14.5 44.2-52.5 190.1-75.2 340.3-83.7 408.2-1.2 9.8 6.6 16.899 15 16.899 3.4 0 6.9-1.199 9.9-3.899l39.8-35.7s-13 59-.7 122.4c1.5 7.699 8.1 12.199 14.8 12.199 3.9 0 7.9-1.5 10.9-4.899 28.7-31.2 85-91.5 129.899-134.2-1.699 2.1 25.9 20.7 27.9 21.8 28.8 16.4 68.4 24.7 118.3 24.7h.101c49.8 0 89.3-8.4 118.1-24.7 10.3-5.8 19.9-13.2 27.9-21.8 44.899 42.7 101.199 103.1 129.899 134.3 3.101 3.3 7 4.9 10.9 4.9 6.8 0 13.399-4.601 14.8-12.2 12.5-63.5-.5-122.6-.5-122.6l39.8 35.699c3.002 2.701 6.502 3.901 9.902 3.901zm-523.701-459.5c0-17.7 14.3-32 32-32s32 14.3 32 32-14.3 32-32 32-32-14.3-32-32zm313.701 32c-17.7 0-32-14.3-32-32s14.3-32 32-32 32 14.3 32 32-14.4 32-32 32z"/></svg>